<svg width="386px" height="141px" viewBox="0 0 386 141" version="1.1"
    xmlns="http://www.w3.org/2000/svg" xmlns:xlink="http://www.w3.org/1999/xlink">
    <g id="Symbols" stroke="none" stroke-width="1" fill="none" fill-rule="evenodd">
        <g id="Artboard" transform="translate(-159.000000, -212.000000)">
            <g id="Group" transform="translate(159.000000, 212.000000)">
                <rect id="Rectangle" fill="#FFB1CC" x="-2.82025189e-14" y="14.8843188"
                    width="45.6452442" height="45.6452442" rx="22.8226221"></rect>
                <rect id="Rectangle-Copy" fill="#8D8D8D" x="123.043702" y="14.8843188"
                    width="45.6452442" height="45.6452442" rx="22.8226221"></rect>
                <rect id="Rectangle-Copy-2" fill="#8D8D8D" x="170.673522" y="14.8843188"
                    width="45.6452442" height="45.6452442" rx="22.8226221"></rect>
                <rect id="Rectangle" fill="#A2A2A2" x="84.344473" y="20.8380463" width="12.8997429"
                    height="12.8997429" rx="6.44987147"></rect>
                <rect id="Rectangle-Copy-3" fill="#A2A2A2" x="54.5758355" y="20.8380463"
                    width="12.8997429" height="12.8997429" rx="6.44987147"></rect>
                <rect id="Rectangle-Copy-4" fill="#A2A2A2" x="54.5758355" y="42.6683805"
                    width="12.8997429" height="12.8997429" rx="6.44987147"></rect>
                <rect id="Rectangle-Copy-5" fill="#A2A2A2" x="84.344473" y="42.6683805"
                    width="12.8997429" height="12.8997429" rx="6.44987147"></rect>
                <path
                    d="M110.143959,0 L123.043702,0 L123.043702,5.43920785 L115.498569,5.43920785 L115.498569,67.9900981 L123.043702,67.9900981 L123.043702,73.4293059 L110.143959,73.4293059 L110.143959,0 Z"
                    id="Combined-Shape" fill="#303030"></path>
                <path
                    d="M217.311054,0 L230.210797,0 L230.210797,5.43920785 L222.665664,5.43920785 L222.665664,67.9900981 L230.210797,67.9900981 L230.210797,73.4293059 L217.311054,73.4293059 L217.311054,0 Z"
                    id="Combined-Shape-Copy" fill="#303030"
                    transform="translate(223.760925, 36.714653) scale(-1, 1) translate(-223.760925, -36.714653) "></path>
                <g id="headscale" transform="translate(0.992288, 83.352185)" fill-rule="nonzero">
                    <path
                        d="M-1.41012594e-14,0 L5.24078361,0 L5.24078361,22.8989519 C9.39290203,17.3523169 14.4311433,14.5789994 20.3555074,14.5789994 C23.3936428,14.5789994 26.1279647,15.405906 28.558473,17.0597192 C30.9889814,18.7135324 32.7105914,20.8762112 33.7233032,23.5477556 C34.7360151,26.2193 35.242371,30.1502867 35.242371,35.3407158 L35.242371,56.1787621 L30.0015873,56.1787621 L30.0015873,36.8673126 C30.0015873,32.6946147 29.8749984,29.8195241 29.6218204,28.2420407 C29.3686425,26.6645574 28.811651,25.1634039 27.9508459,23.7385802 C27.0900409,22.3137565 25.9380812,21.2324171 24.4949669,20.494562 C23.0518526,19.7567069 21.3049247,19.3877793 19.2541833,19.3877793 C17.2034419,19.3877793 15.2413127,19.8712016 13.3677959,20.8380463 C11.494279,21.8048909 9.89925794,23.1533847 8.58273258,24.8835278 C7.26620723,26.6136708 6.3800844,28.3947004 5.92436408,30.2266166 C5.46864377,32.0585327 5.24078361,35.7478083 5.24078361,41.2944433 L5.24078361,56.1787621 L-1.41012594e-14,56.1787621 L-1.41012594e-14,0 Z"
                        id="Path" fill="#FFB1CC"></path>
                    <path
                        d="M80.2827287,43.0500297 L84.688025,45.3399249 C80.3333643,53.4817744 73.9026443,57.5526992 65.3958651,57.5526992 C59.3195942,57.5526992 54.3066708,55.4536286 50.3570947,51.2554874 C46.4075187,47.0573463 44.4327306,42.0068552 44.4327306,36.1040142 C44.4327306,30.2011733 46.4201776,25.1379606 50.3950714,20.9143761 C54.3699653,16.6907916 59.2816175,14.5789994 65.1300282,14.5789994 C70.9784389,14.5789994 75.8900912,16.538132 79.8649851,20.4563971 C83.8398789,24.3746622 85.9032792,29.717751 86.055186,36.4856634 L49.7494676,36.4856634 C49.9013744,41.3707732 51.433101,45.3017599 54.3446475,48.2786237 C57.2561939,51.2554874 60.7880264,52.7439193 64.9401448,52.7439193 C71.7759495,52.7439193 76.8901441,49.5126228 80.2827287,43.0500297 Z M80.2827287,31.9822029 C79.5738304,28.1148243 77.8015847,25.087074 74.9659917,22.8989519 C72.1303986,20.7108299 68.864403,19.6167688 65.1680049,19.6167688 C57.5726664,19.6167688 52.6103785,23.7385802 50.2811413,31.9822029 L80.2827287,31.9822029 Z"
                        id="Shape" fill="#A2A2A2"></path>
                    <path
                        d="M135.880607,15.6476172 L135.880607,56.1787621 L130.79173,56.1787621 L130.79173,49.2327467 C126.183891,54.7793817 120.91779,57.5526992 114.993426,57.5526992 C109.069062,57.5526992 104.068797,55.4281854 99.9926323,51.1791576 C95.9164672,46.9301299 93.8783847,41.8669171 93.8783847,35.9895195 C93.8783847,30.1121218 95.9291261,25.0743524 100.030609,20.8762112 C104.132092,16.67807 109.043744,14.5789994 114.765566,14.5789994 C121.348193,14.5789994 126.690247,17.4032035 130.79173,23.0516116 L130.79173,15.6476172 L135.880607,15.6476172 Z M131.095544,36.1040142 C131.095544,31.4733373 129.551158,27.5677938 126.462387,24.3873838 C123.373616,21.2069738 119.588606,19.6167688 115.107356,19.6167688 C110.626106,19.6167688 106.841096,21.2578604 103.752325,24.5400435 C100.663554,27.8222266 99.1191683,31.7023268 99.1191683,36.1803441 C99.1191683,40.6583613 100.688872,44.5384615 103.828278,47.8206447 C106.967685,51.1028278 110.727377,52.7439193 115.107356,52.7439193 C119.487335,52.7439193 123.247027,51.166436 126.386434,48.0114693 C129.52584,44.8565025 131.095544,40.8873509 131.095544,36.1040142 Z"
                        id="Shape" fill="#A2A2A2"></path>
                    <path
                        d="M187.832723,0 L187.832723,56.1787621 L182.743846,56.1787621 L182.743846,49.2327467 C178.136007,54.7793817 172.857247,57.5526992 166.907565,57.5526992 C160.957883,57.5526992 155.957619,55.440907 151.906771,51.2173225 C147.855924,46.9937381 145.830501,41.9305253 145.830501,36.0276844 C145.830501,30.1248435 147.881242,25.0743524 151.982725,20.8762112 C156.084208,16.67807 160.99586,14.5789994 166.717682,14.5789994 C173.300308,14.5789994 178.642363,17.4032035 182.743846,23.0516116 L182.743846,0 L187.832723,0 Z M183.04766,36.1803441 C183.04766,31.5496671 181.528592,27.631402 178.490456,24.4255487 C175.452321,21.2196955 171.654652,19.6167688 167.097449,19.6167688 C162.540245,19.6167688 158.729917,21.2578604 155.666464,24.5400435 C152.603011,27.8222266 151.071284,31.6896052 151.071284,36.1421792 C151.071284,40.5947531 152.640987,44.4748533 155.780394,47.7824797 C158.919801,51.0901061 162.628858,52.7439193 166.907565,52.7439193 C171.186272,52.7439193 174.945965,51.1791576 178.186643,48.0496342 C181.427321,44.9201107 183.04766,40.9636807 183.04766,36.1803441 Z"
                        id="Shape" fill="#A2A2A2"></path>
                    <path
                        d="M219.885052,20.0747479 L216.543103,23.5095907 C213.758145,20.812603 211.049141,19.4641092 208.41609,19.4641092 C206.69448,19.4641092 205.251366,20.0111397 204.086747,21.1052007 C202.922129,22.1992617 202.339819,23.5477556 202.339819,25.1506822 C202.339819,26.7536089 202.960105,28.127546 204.200677,29.2724936 C205.441249,30.4174412 207.580603,31.7913783 210.618739,33.3943049 C213.656874,34.9972316 215.973452,36.7273746 217.568473,38.584734 C219.163494,40.4420935 219.961005,42.719267 219.961005,45.4162547 C219.961005,48.8256542 218.783727,51.7007448 216.429173,54.0415266 C214.074618,56.3823084 211.17573,57.5526992 207.73251,57.5526992 C205.453908,57.5526992 203.263919,57.0438336 201.162542,56.0261024 C199.061165,55.0083712 197.27626,53.5835476 195.807828,51.7516314 L199.073824,48.0877991 C201.75751,51.0901061 204.567785,52.5912596 207.50465,52.5912596 C209.580709,52.5912596 211.352955,51.9042911 212.821387,50.530354 C214.289819,49.1564168 215.024035,47.5407686 215.024035,45.6834091 C215.024035,43.8260497 214.378431,42.2994529 213.087224,41.1036187 C211.796016,39.9077846 209.644003,38.5465691 206.631186,37.0199723 C203.618368,35.4933755 201.365084,33.8268407 199.871334,32.0203678 C198.377585,30.2138949 197.63071,27.8731132 197.63071,24.9980225 C197.63071,22.1229319 198.681398,19.6676554 200.782775,17.632193 C202.884152,15.5967306 205.66911,14.5789994 209.137648,14.5789994 C212.606185,14.5789994 216.188653,16.4109156 219.885052,20.0747479 Z"
                        id="Path" fill="#8D8D8D"></path>
                    <path
                        d="M271.22954,24.0438995 L267.128057,26.6391141 C263.583566,21.906664 258.722549,19.540439 252.545007,19.540439 C247.683991,19.540439 243.607826,21.1052007 240.316512,24.2347241 C237.025199,27.3642476 235.379542,31.2443478 235.379542,35.8750247 C235.379542,40.5057017 236.999881,44.4748533 240.240559,47.7824797 C243.481237,51.0901061 247.58272,52.7439193 252.545007,52.7439193 C258.469372,52.7439193 263.330388,50.3776943 267.128057,45.6452442 L271.22954,48.3931184 C269.204117,51.3445389 266.482454,53.6089908 263.064551,55.1864742 C259.646649,56.7639576 255.96291,57.5526992 252.013334,57.5526992 C245.785156,57.5526992 240.582349,55.4917936 236.404913,51.3699822 C232.227477,47.2481709 230.138759,42.2104014 230.138759,36.2566739 C230.138759,30.3029464 232.252795,25.2015688 236.480866,20.952541 C240.708938,16.7035133 246.139605,14.5789994 252.772868,14.5789994 C256.671808,14.5789994 260.279594,15.4186276 263.596225,17.0978841 C266.912856,18.7771406 269.457295,21.0924791 271.22954,24.0438995 Z"
                        id="Path" fill="#8D8D8D"></path>
                    <path
                        d="M318.396593,15.6476172 L318.396593,56.1787621 L313.307716,56.1787621 L313.307716,49.2327467 C308.699877,54.7793817 303.433776,57.5526992 297.509412,57.5526992 C291.585048,57.5526992 286.584783,55.4281854 282.508618,51.1791576 C278.432453,46.9301299 276.394371,41.8669171 276.394371,35.9895195 C276.394371,30.1121218 278.445112,25.0743524 282.546595,20.8762112 C286.648078,16.67807 291.55973,14.5789994 297.281552,14.5789994 C303.864178,14.5789994 309.206233,17.4032035 313.307716,23.0516116 L313.307716,15.6476172 L318.396593,15.6476172 Z M313.61153,36.1040142 C313.61153,31.4733373 312.067144,27.5677938 308.978373,24.3873838 C305.889602,21.2069738 302.104592,19.6167688 297.623342,19.6167688 C293.142092,19.6167688 289.357082,21.2578604 286.268311,24.5400435 C283.17954,27.8222266 281.635154,31.7023268 281.635154,36.1803441 C281.635154,40.6583613 283.204857,44.5384615 286.344264,47.8206447 C289.483671,51.1028278 293.243363,52.7439193 297.623342,52.7439193 C302.00332,52.7439193 305.763013,51.166436 308.90242,48.0114693 C312.041826,44.8565025 313.61153,40.8873509 313.61153,36.1040142 Z"
                        id="Shape" fill="#8D8D8D"></path>
                    <polygon id="Path" fill="#8D8D8D"
                        points="329.33388 0 334.498711 0 334.498711 56.1787621 329.33388 56.1787621"></polygon>
                    <path
                        d="M379.235255,43.0500297 L383.640551,45.3399249 C379.28589,53.4817744 372.85517,57.5526992 364.348391,57.5526992 C358.27212,57.5526992 353.259197,55.4536286 349.309621,51.2554874 C345.360045,47.0573463 343.385257,42.0068552 343.385257,36.1040142 C343.385257,30.2011733 345.372704,25.1379606 349.347597,20.9143761 C353.322491,16.6907916 358.234144,14.5789994 364.082554,14.5789994 C369.930965,14.5789994 374.842617,16.538132 378.817511,20.4563971 C382.792405,24.3746622 384.855805,29.717751 385.007712,36.4856634 L348.701994,36.4856634 C348.8539,41.3707732 350.385627,45.3017599 353.297174,48.2786237 C356.20872,51.2554874 359.740552,52.7439193 363.892671,52.7439193 C370.728476,52.7439193 375.84267,49.5126228 379.235255,43.0500297 Z M379.235255,31.9822029 C378.526357,28.1148243 376.754111,25.087074 373.918518,22.8989519 C371.082925,20.7108299 367.816929,19.6167688 364.120531,19.6167688 C356.525192,19.6167688 351.562905,23.7385802 349.233667,31.9822029 L379.235255,31.9822029 Z"
                        id="Shape" fill="#8D8D8D"></path>
                </g>
            </g>
        </g>
    </g>
</svg>